# MagicaVoxel @ Ephtracy

# group
o CharacterTemplate

# material
mtllib CharacterTemplate.mtl
usemtl palette

# normals
vn -1 0 0
vn 1 0 0
vn 0 0 1
vn 0 0 -1
vn 0 -1 0
vn 0 1 0

# texcoords
vt 0.00195313 0.5
vt 0.0410156 0.5
vt 0.0800781 0.5
vt 0.142578 0.5
vt 0.248047 0.5

# verts
v -0.4 0.5 0.1
v -0.4 0.5 0
v -0.4 0.7 0.1
v -0.4 0.7 0
v -0.3 0.7 0.1
v -0.3 0.7 0
v -0.3 0.8 0.1
v -0.3 0.8 0
v -0.3 1.2 0.4
v -0.3 1.2 0.3
v -0.3 1.3 0.4
v -0.3 1.3 0.3
v -0.2 0 0.1
v -0.2 0 0
v -0.2 0.2 0.1
v -0.2 0.2 0
v -0.2 0.3 0.1
v -0.2 0.3 0
v -0.2 0.4 0.2
v -0.2 0.4 0.1
v -0.2 0.4 0
v -0.2 0.4 -0.1
v -0.2 0.5 0.2
v -0.2 0.5 -0.1
v -0.2 0.7 0.1
v -0.2 0.7 0
v -0.2 0.8 0.3
v -0.2 0.8 0.2
v -0.2 0.8 0.1
v -0.2 0.8 0
v -0.2 0.8 -0.1
v -0.2 0.9 0.3
v -0.2 0.9 0.2
v -0.2 0.9 0
v -0.2 0.9 -0.1
v -0.2 1 0.3
v -0.2 1 0.2
v -0.2 1 0.1
v -0.2 1 0
v -0.2 1.1 0.4
v -0.2 1.1 0.3
v -0.2 1.1 0.1
v -0.2 1.2 0.4
v -0.2 1.2 0.3
v -0.2 1.2 -0.1
v 0.1 0 0.1
v 0.1 0 0
v 0.1 0.2 0.1
v 0.1 0.2 0
v 0.1 0.3 0.1
v 0.1 0.3 0
v 0.1 0.4 0.1
v 0.1 0.4 0
v 0.3 0.5 0.1
v 0.3 0.5 0
v 0.3 0.7 0.1
v 0.3 0.7 0
v -0.3 0.5 0.1
v -0.3 0.5 0
v -0.3 0.7 0.1
v -0.3 0.7 0
v -0.1 0 0.1
v -0.1 0 0
v -0.1 0.2 0.1
v -0.1 0.2 0
v -0.1 0.3 0.1
v -0.1 0.3 0
v -0.1 0.4 0.1
v -0.1 0.4 0
v -0.1 1.2 0.4
v -0.1 1.2 0.3
v -0.1 1.3 0.4
v -0.1 1.3 0.3
v 0 1.1 0.4
v 0 1.1 0.3
v 0 1.2 0.4
v 0 1.2 0.3
v 0.2 0 0.1
v 0.2 0 0
v 0.2 0.2 0.1
v 0.2 0.2 0
v 0.2 0.3 0.1
v 0.2 0.3 0
v 0.2 0.4 0.2
v 0.2 0.4 0.1
v 0.2 0.4 0
v 0.2 0.4 -0.1
v 0.2 0.5 0.2
v 0.2 0.5 -0.1
v 0.2 0.7 0.1
v 0.2 0.7 0
v 0.2 0.8 0.3
v 0.2 0.8 0.2
v 0.2 0.8 0.1
v 0.2 0.8 0
v 0.2 0.8 -0.1
v 0.2 0.9 0.3
v 0.2 0.9 0.2
v 0.2 0.9 0
v 0.2 0.9 -0.1
v 0.2 1 0.3
v 0.2 1 0.2
v 0.2 1 0.1
v 0.2 1 0
v 0.2 1.1 0.3
v 0.2 1.1 0.1
v 0.2 1.2 0.3
v 0.2 1.2 -0.1
v 0.3 0.7 0.1
v 0.3 0.7 0
v 0.3 0.8 0.1
v 0.3 0.8 0
v 0.4 0.5 0.1
v 0.4 0.5 0
v 0.4 0.7 0.1
v 0.4 0.7 0
v -0.3 1.2 0.4
v -0.3 1.3 0.4
v -0.2 1.1 0.4
v -0.2 1.2 0.4
v -0.1 1.2 0.4
v -0.1 1.3 0.4
v 0 1.1 0.4
v 0 1.2 0.4
v -0.2 0.8 0.3
v -0.2 0.9 0.3
v -0.2 1 0.3
v -0.2 1.1 0.3
v -0.1 0.9 0.3
v -0.1 1 0.3
v 0 1.1 0.3
v 0 1.2 0.3
v 0.1 0.9 0.3
v 0.1 1 0.3
v 0.2 0.8 0.3
v 0.2 0.9 0.3
v 0.2 1 0.3
v 0.2 1.1 0.3
v 0.2 1.2 0.3
v -0.2 0.4 0.2
v -0.2 0.5 0.2
v -0.2 0.8 0.2
v 0.2 0.4 0.2
v 0.2 0.5 0.2
v 0.2 0.8 0.2
v -0.4 0.5 0.1
v -0.4 0.7 0.1
v -0.3 0.5 0.1
v -0.3 0.7 0.1
v -0.3 0.8 0.1
v -0.2 0 0.1
v -0.2 0.2 0.1
v -0.2 0.3 0.1
v -0.2 0.4 0.1
v -0.2 0.7 0.1
v -0.2 0.8 0.1
v -0.1 0 0.1
v -0.1 0.2 0.1
v -0.1 0.3 0.1
v -0.1 0.4 0.1
v 0.1 0 0.1
v 0.1 0.2 0.1
v 0.1 0.3 0.1
v 0.1 0.4 0.1
v 0.2 0 0.1
v 0.2 0.2 0.1
v 0.2 0.3 0.1
v 0.2 0.4 0.1
v 0.2 0.7 0.1
v 0.2 0.8 0.1
v 0.3 0.5 0.1
v 0.3 0.7 0.1
v 0.3 0.8 0.1
v 0.4 0.5 0.1
v 0.4 0.7 0.1
v -0.3 1.2 0.3
v -0.3 1.3 0.3
v -0.2 1.2 0.3
v -0.1 1.2 0.3
v -0.1 1.3 0.3
v -0.4 0.5 0
v -0.4 0.7 0
v -0.3 0.5 0
v -0.3 0.7 0
v -0.3 0.8 0
v -0.2 0 0
v -0.2 0.2 0
v -0.2 0.3 0
v -0.2 0.4 0
v -0.2 0.7 0
v -0.2 0.8 0
v -0.1 0 0
v -0.1 0.2 0
v -0.1 0.3 0
v -0.1 0.4 0
v 0.1 0 0
v 0.1 0.2 0
v 0.1 0.3 0
v 0.1 0.4 0
v 0.2 0 0
v 0.2 0.2 0
v 0.2 0.3 0
v 0.2 0.4 0
v 0.2 0.7 0
v 0.2 0.8 0
v 0.3 0.5 0
v 0.3 0.7 0
v 0.3 0.8 0
v 0.4 0.5 0
v 0.4 0.7 0
v -0.2 0.4 -0.1
v -0.2 0.5 -0.1
v -0.2 0.8 -0.1
v -0.2 0.9 -0.1
v -0.2 1.2 -0.1
v 0.2 0.4 -0.1
v 0.2 0.5 -0.1
v 0.2 0.8 -0.1
v 0.2 0.9 -0.1
v 0.2 1.2 -0.1
v -0.2 0 0.1
v -0.1 0 0.1
v 0.1 0 0.1
v 0.2 0 0.1
v -0.2 0 0
v -0.1 0 0
v 0.1 0 0
v 0.2 0 0
v -0.2 0.4 0.2
v 0.2 0.4 0.2
v -0.2 0.4 0.1
v -0.1 0.4 0.1
v 0.1 0.4 0.1
v 0.2 0.4 0.1
v -0.2 0.4 0
v -0.1 0.4 0
v 0.1 0.4 0
v 0.2 0.4 0
v -0.2 0.4 -0.1
v 0.2 0.4 -0.1
v -0.4 0.5 0.1
v -0.3 0.5 0.1
v 0.3 0.5 0.1
v 0.4 0.5 0.1
v -0.4 0.5 0
v -0.3 0.5 0
v 0.3 0.5 0
v 0.4 0.5 0
v -0.3 0.7 0.1
v -0.2 0.7 0.1
v 0.2 0.7 0.1
v 0.3 0.7 0.1
v -0.3 0.7 0
v -0.2 0.7 0
v 0.2 0.7 0
v 0.3 0.7 0
v -0.2 0.8 0.3
v 0.2 0.8 0.3
v -0.2 0.8 0.2
v 0.2 0.8 0.2
v -0.2 1.1 0.4
v 0 1.1 0.4
v -0.2 1.1 0.3
v 0 1.1 0.3
v -0.3 1.2 0.4
v -0.2 1.2 0.4
v -0.3 1.2 0.3
v -0.2 1.2 0.3
v -0.4 0.7 0.1
v -0.3 0.7 0.1
v 0.3 0.7 0.1
v 0.4 0.7 0.1
v -0.4 0.7 0
v -0.3 0.7 0
v 0.3 0.7 0
v 0.4 0.7 0
v -0.3 0.8 0.1
v -0.2 0.8 0.1
v 0.2 0.8 0.1
v 0.3 0.8 0.1
v -0.3 0.8 0
v -0.2 0.8 0
v 0.2 0.8 0
v 0.3 0.8 0
v -0.1 1.2 0.4
v 0 1.2 0.4
v -0.2 1.2 0.3
v -0.1 1.2 0.3
v 0 1.2 0.3
v 0.2 1.2 0.3
v -0.2 1.2 -0.1
v 0.2 1.2 -0.1
v -0.3 1.3 0.4
v -0.1 1.3 0.4
v -0.3 1.3 0.3
v -0.1 1.3 0.3

# faces
f 3/5/1 2/5/1 1/5/1
f 4/5/1 2/5/1 3/5/1
f 7/2/1 6/2/1 5/2/1
f 8/2/1 6/2/1 7/2/1
f 11/3/1 10/3/1 9/3/1
f 12/3/1 10/3/1 11/3/1
f 15/3/1 14/3/1 13/3/1
f 16/3/1 14/3/1 15/3/1
f 17/5/1 16/5/1 15/5/1
f 18/5/1 16/5/1 17/5/1
f 20/4/1 18/4/1 17/4/1
f 21/4/1 18/4/1 20/4/1
f 23/4/1 21/4/1 20/4/1
f 23/4/1 22/4/1 21/4/1
f 23/4/1 20/4/1 19/4/1
f 24/4/1 22/4/1 23/4/1
f 25/2/1 24/2/1 23/2/1
f 26/2/1 24/2/1 25/2/1
f 28/2/1 25/2/1 23/2/1
f 29/2/1 25/2/1 28/2/1
f 30/2/1 24/2/1 26/2/1
f 31/2/1 24/2/1 30/2/1
f 32/5/1 29/5/1 28/5/1
f 32/5/1 28/5/1 27/5/1
f 32/5/1 31/5/1 30/5/1
f 32/5/1 30/5/1 29/5/1
f 33/5/1 31/5/1 32/5/1
f 34/5/1 31/5/1 33/5/1
f 35/5/1 31/5/1 34/5/1
f 36/1/1 33/1/1 32/1/1
f 37/5/1 34/5/1 33/5/1
f 37/1/1 33/1/1 36/1/1
f 38/5/1 34/5/1 37/5/1
f 39/3/1 35/3/1 34/3/1
f 39/5/1 34/5/1 38/5/1
f 41/5/1 38/5/1 37/5/1
f 41/5/1 37/5/1 36/5/1
f 42/3/1 39/3/1 38/3/1
f 42/5/1 38/5/1 41/5/1
f 43/3/1 41/3/1 40/3/1
f 43/3/1 42/3/1 41/3/1
f 44/3/1 42/3/1 43/3/1
f 45/3/1 35/3/1 39/3/1
f 45/3/1 42/3/1 44/3/1
f 45/3/1 39/3/1 42/3/1
f 48/3/1 47/3/1 46/3/1
f 49/3/1 47/3/1 48/3/1
f 50/5/1 49/5/1 48/5/1
f 51/5/1 49/5/1 50/5/1
f 52/4/1 51/4/1 50/4/1
f 53/4/1 51/4/1 52/4/1
f 56/5/1 55/5/1 54/5/1
f 57/5/1 55/5/1 56/5/1
f 58/5/2 59/5/2 60/5/2
f 60/5/2 59/5/2 61/5/2
f 62/3/2 63/3/2 64/3/2
f 64/3/2 63/3/2 65/3/2
f 64/5/2 65/5/2 66/5/2
f 66/5/2 65/5/2 67/5/2
f 66/4/2 67/4/2 68/4/2
f 68/4/2 67/4/2 69/4/2
f 70/3/2 71/3/2 72/3/2
f 72/3/2 71/3/2 73/3/2
f 74/3/2 75/3/2 76/3/2
f 76/3/2 75/3/2 77/3/2
f 78/3/2 79/3/2 80/3/2
f 80/3/2 79/3/2 81/3/2
f 80/5/2 81/5/2 82/5/2
f 82/5/2 81/5/2 83/5/2
f 82/4/2 83/4/2 85/4/2
f 85/4/2 83/4/2 86/4/2
f 85/4/2 86/4/2 88/4/2
f 86/4/2 87/4/2 88/4/2
f 84/4/2 85/4/2 88/4/2
f 88/4/2 87/4/2 89/4/2
f 88/2/2 89/2/2 90/2/2
f 90/2/2 89/2/2 91/2/2
f 88/2/2 90/2/2 93/2/2
f 93/2/2 90/2/2 94/2/2
f 91/2/2 89/2/2 95/2/2
f 95/2/2 89/2/2 96/2/2
f 93/5/2 94/5/2 97/5/2
f 92/5/2 93/5/2 97/5/2
f 95/5/2 96/5/2 97/5/2
f 94/5/2 95/5/2 97/5/2
f 97/5/2 96/5/2 98/5/2
f 98/5/2 96/5/2 99/5/2
f 99/5/2 96/5/2 100/5/2
f 97/1/2 98/1/2 101/1/2
f 98/5/2 99/5/2 102/5/2
f 101/1/2 98/1/2 102/1/2
f 102/5/2 99/5/2 103/5/2
f 99/3/2 100/3/2 104/3/2
f 103/5/2 99/5/2 104/5/2
f 102/5/2 103/5/2 105/5/2
f 101/5/2 102/5/2 105/5/2
f 103/3/2 104/3/2 106/3/2
f 105/5/2 103/5/2 106/5/2
f 105/3/2 106/3/2 107/3/2
f 104/3/2 100/3/2 108/3/2
f 107/3/2 106/3/2 108/3/2
f 106/3/2 104/3/2 108/3/2
f 109/2/2 110/2/2 111/2/2
f 111/2/2 110/2/2 112/2/2
f 113/5/2 114/5/2 115/5/2
f 115/5/2 114/5/2 116/5/2
f 120/3/3 118/3/3 117/3/3
f 121/3/3 118/3/3 120/3/3
f 121/3/3 120/3/3 119/3/3
f 122/3/3 118/3/3 121/3/3
f 123/3/3 121/3/3 119/3/3
f 124/3/3 121/3/3 123/3/3
f 129/5/3 126/5/3 125/5/3
f 129/1/3 127/1/3 126/1/3
f 130/5/3 128/5/3 127/5/3
f 130/1/3 127/1/3 129/1/3
f 131/5/3 130/5/3 129/5/3
f 131/5/3 128/5/3 130/5/3
f 133/5/3 129/5/3 125/5/3
f 133/5/3 131/5/3 129/5/3
f 134/5/3 131/5/3 133/5/3
f 135/5/3 133/5/3 125/5/3
f 136/1/3 134/1/3 133/1/3
f 136/5/3 133/5/3 135/5/3
f 137/5/3 131/5/3 134/5/3
f 137/1/3 134/1/3 136/1/3
f 138/3/3 132/3/3 131/3/3
f 138/5/3 131/5/3 137/5/3
f 139/3/3 132/3/3 138/3/3
f 143/4/3 141/4/3 140/4/3
f 144/2/3 142/2/3 141/2/3
f 144/4/3 141/4/3 143/4/3
f 145/2/3 142/2/3 144/2/3
f 148/5/3 147/5/3 146/5/3
f 149/5/3 147/5/3 148/5/3
f 155/2/3 150/2/3 149/2/3
f 156/2/3 150/2/3 155/2/3
f 157/3/3 152/3/3 151/3/3
f 158/5/3 153/5/3 152/5/3
f 158/3/3 152/3/3 157/3/3
f 159/4/3 154/4/3 153/4/3
f 159/5/3 153/5/3 158/5/3
f 160/4/3 154/4/3 159/4/3
f 165/3/3 162/3/3 161/3/3
f 166/5/3 163/5/3 162/5/3
f 166/3/3 162/3/3 165/3/3
f 167/4/3 164/4/3 163/4/3
f 167/5/3 163/5/3 166/5/3
f 168/4/3 164/4/3 167/4/3
f 172/2/3 170/2/3 169/2/3
f 173/2/3 170/2/3 172/2/3
f 174/5/3 172/5/3 171/5/3
f 175/5/3 172/5/3 174/5/3
f 176/3/4 177/3/4 178/3/4
f 178/3/4 177/3/4 179/3/4
f 179/3/4 177/3/4 180/3/4
f 181/5/4 182/5/4 183/5/4
f 183/5/4 182/5/4 184/5/4
f 184/2/4 185/2/4 190/2/4
f 190/2/4 185/2/4 191/2/4
f 186/3/4 187/3/4 192/3/4
f 187/5/4 188/5/4 193/5/4
f 192/3/4 187/3/4 193/3/4
f 188/4/4 189/4/4 194/4/4
f 193/5/4 188/5/4 194/5/4
f 194/4/4 189/4/4 195/4/4
f 196/3/4 197/3/4 200/3/4
f 197/5/4 198/5/4 201/5/4
f 200/3/4 197/3/4 201/3/4
f 198/4/4 199/4/4 202/4/4
f 201/5/4 198/5/4 202/5/4
f 202/4/4 199/4/4 203/4/4
f 204/2/4 205/2/4 207/2/4
f 207/2/4 205/2/4 208/2/4
f 206/5/4 207/5/4 209/5/4
f 209/5/4 207/5/4 210/5/4
f 211/4/4 212/4/4 216/4/4
f 212/2/4 213/2/4 217/2/4
f 216/4/4 212/4/4 217/4/4
f 213/5/4 214/5/4 218/5/4
f 217/2/4 213/2/4 218/2/4
f 214/3/4 215/3/4 219/3/4
f 218/5/4 214/5/4 219/5/4
f 219/3/4 215/3/4 220/3/4
f 225/3/5 222/3/5 221/3/5
f 226/3/5 222/3/5 225/3/5
f 227/3/5 224/3/5 223/3/5
f 228/3/5 224/3/5 227/3/5
f 231/4/5 230/4/5 229/4/5
f 232/4/5 230/4/5 231/4/5
f 233/4/5 230/4/5 232/4/5
f 234/4/5 230/4/5 233/4/5
f 236/4/5 233/4/5 232/4/5
f 237/4/5 233/4/5 236/4/5
f 239/4/5 236/4/5 235/4/5
f 239/4/5 238/4/5 237/4/5
f 239/4/5 237/4/5 236/4/5
f 240/4/5 238/4/5 239/4/5
f 245/5/5 242/5/5 241/5/5
f 246/5/5 242/5/5 245/5/5
f 247/5/5 244/5/5 243/5/5
f 248/5/5 244/5/5 247/5/5
f 253/2/5 250/2/5 249/2/5
f 254/2/5 250/2/5 253/2/5
f 255/2/5 252/2/5 251/2/5
f 256/2/5 252/2/5 255/2/5
f 259/5/5 258/5/5 257/5/5
f 260/5/5 258/5/5 259/5/5
f 263/3/5 262/3/5 261/3/5
f 264/3/5 262/3/5 263/3/5
f 267/3/5 266/3/5 265/3/5
f 268/3/5 266/3/5 267/3/5
f 269/5/6 270/5/6 273/5/6
f 273/5/6 270/5/6 274/5/6
f 271/5/6 272/5/6 275/5/6
f 275/5/6 272/5/6 276/5/6
f 277/2/6 278/2/6 281/2/6
f 281/2/6 278/2/6 282/2/6
f 279/2/6 280/2/6 283/2/6
f 283/2/6 280/2/6 284/2/6
f 285/3/6 286/3/6 288/3/6
f 288/3/6 286/3/6 289/3/6
f 287/3/6 288/3/6 291/3/6
f 289/3/6 290/3/6 291/3/6
f 288/3/6 289/3/6 291/3/6
f 291/3/6 290/3/6 292/3/6
f 293/3/6 294/3/6 295/3/6
f 295/3/6 294/3/6 296/3/6
